<?xml version="1.0" encoding="UTF-8"?>
<svg version="1.1" xmlns="http://www.w3.org/2000/svg" width="512" height="512">
<path d="M0 0 C0.84369141 0.22026855 1.68738281 0.44053711 2.55664062 0.66748047 C15.90967674 4.22811771 28.46604388 9.20769711 41 15 C41.72171387 15.33257813 42.44342773 15.66515625 43.18701172 16.0078125 C58.79438589 23.29150052 73.53360808 32.25779928 87 43 C87.90878906 43.71671875 88.81757813 44.4334375 89.75390625 45.171875 C104.51369482 57.01329855 118.32387702 70.08955028 130 85 C130.80179687 85.99644531 131.60359375 86.99289063 132.4296875 88.01953125 C138.99618834 96.25977047 144.61176888 104.95422365 150 114 C150.38542969 114.63776367 150.77085937 115.27552734 151.16796875 115.93261719 C164.84513172 138.67731909 173.94319055 163.95929747 179.375 189.875 C179.61371826 191.01388672 179.85243652 192.15277344 180.09838867 193.32617188 C183.20464922 209.04508602 184.38680115 224.62643478 184.3125 240.625 C184.30976578 241.86008301 184.30976578 241.86008301 184.30697632 243.12011719 C184.22714073 264.66480283 181.452192 285.14836876 176 306 C175.77973145 306.8451416 175.55946289 307.6902832 175.33251953 308.56103516 C168.07901994 335.75770791 155.47538338 362.18171826 139 385 C138.54689453 385.63953613 138.09378906 386.27907227 137.62695312 386.93798828 C130.66624053 396.73215968 123.06840493 405.66023155 114.6875 414.265625 C113.09197277 415.90547243 111.51375075 417.56040286 109.9375 419.21875 C103.38314207 426.03333058 96.37014299 431.97432047 88.80761719 437.64111328 C87.0078767 438.99407864 85.22628451 440.36855445 83.4453125 441.74609375 C41.35412641 473.91199677 -11.52641431 490.20955422 -64.1875 490.25 C-64.98135101 490.25067474 -65.77520203 490.25134949 -66.59310913 490.25204468 C-116.99920959 490.18433962 -168.07763922 474.88020209 -209 445 C-209.54769043 444.60103516 -210.09538086 444.20207031 -210.65966797 443.79101562 C-228.95925347 430.3304973 -246.07910642 415.00609039 -260 397 C-260.76183594 396.06671875 -261.52367187 395.1334375 -262.30859375 394.171875 C-302.85988255 343.56386658 -319.54271943 276.88202103 -313.23046875 212.87060547 C-309.34513482 180.12812794 -299.2714112 148.86131269 -283.0612793 120.19091797 C-282.64789307 119.43955566 -282.23450684 118.68819336 -281.80859375 117.9140625 C-281.43532959 117.2535791 -281.06206543 116.5930957 -280.67749023 115.91259766 C-279.82300042 113.50031901 -280.11989817 112.3763047 -281 110 C-282.25728229 107.76169925 -283.54425876 105.56815422 -284.875 103.375 C-293.44607804 88.81307776 -295.01403212 72.99823117 -291.08984375 56.578125 C-286.36935489 41.08003254 -276.32406876 27.86666919 -262 20 C-246.00015315 12.52940984 -229.97770373 10.77749092 -213 16 C-207.4057798 18.26976861 -201.51553162 20.85190558 -196.9140625 24.78125 C-195.06730874 26.20260715 -195.06730874 26.20260715 -192.7890625 25.97265625 C-188.73864514 24.56011574 -185.12195441 22.50968222 -181.375 20.4375 C-125.98846347 -9.37737601 -60.63112943 -15.95138353 0 0 Z M-183 39 C-181.97292516 41.61048189 -180.91395232 44.19498624 -179.78125 46.76171875 C-172.54680541 63.28183764 -172.32230143 78.9669043 -178 96 C-183.94613497 110.36832007 -195.782727 121.91747744 -210.05859375 127.93359375 C-225.64268773 133.58360392 -240.45466021 133.21499647 -256 128 C-258.56806442 126.75048478 -260.93065053 125.44331664 -263.30078125 123.85546875 C-263.86152344 123.57316406 -264.42226563 123.29085937 -265 123 C-268.43203677 124.14401226 -268.58798677 124.51659526 -270.19921875 127.55078125 C-270.59979492 128.30166016 -271.00037109 129.05253906 -271.41308594 129.82617188 C-271.83364258 130.64666016 -272.25419922 131.46714844 -272.6875 132.3125 C-273.12739258 133.16263672 -273.56728516 134.01277344 -274.02050781 134.88867188 C-283.54082212 153.65394795 -290.37576707 173.56300758 -294.75 194.125 C-294.94875732 195.05344727 -295.14751465 195.98189453 -295.35229492 196.93847656 C-298.28087656 211.43451634 -299.38679128 225.80495486 -299.3125 240.5625 C-299.31034485 241.34203033 -299.3081897 242.12156067 -299.30596924 242.92471313 C-299.05459088 299.98542037 -278.02115153 354.45063494 -240 397 C-239.27296875 397.81960205 -239.27296875 397.81960205 -238.53125 398.65576172 C-198.72740675 443.34438651 -140.7909936 471.34415989 -81 475 C-22.78401752 477.14864296 34.04322202 461.8296976 80 425 C80.97324219 424.23042969 81.94648438 423.46085937 82.94921875 422.66796875 C97.92159194 410.56648871 111.76195413 396.64400555 123 381 C124.14275391 379.43958984 124.14275391 379.43958984 125.30859375 377.84765625 C140.12838281 357.06913052 151.35459152 334.33404259 159 310 C159.23557617 309.26249512 159.47115234 308.52499023 159.71386719 307.76513672 C178.40954739 248.35767931 169.42295233 184.3056815 141.3125 129.5625 C133.83879722 115.36290374 124.55493662 102.07975861 114 90 C113.34386719 89.23429687 112.68773437 88.46859375 112.01171875 87.6796875 C91.68290423 64.47957149 68.30528469 46.32486693 41 32 C40.38495605 31.67080566 39.76991211 31.34161133 39.13623047 31.00244141 C17.49374359 19.55869933 -6.92824301 12.80195508 -31 9 C-32.14807129 8.80736572 -32.14807129 8.80736572 -33.31933594 8.61083984 C-82.61453851 0.57480021 -141.12289133 11.5444755 -183 39 Z M-268.4375 44.69921875 C-275.74116825 55.45387024 -279.24622619 66.03293767 -278 79 C-275.52823676 91.40321913 -269.62191729 102.77420593 -259 110 C-247.27554204 116.91935224 -236.44932738 119.8253921 -223.0625 116.8125 C-209.83388285 113.22307904 -200.57564987 106.38490928 -193.58203125 94.61328125 C-187.40212833 83.06900512 -186.55712533 71.53831919 -189.95703125 58.9921875 C-191.63255927 54.18524195 -194.07076294 50.14133515 -197 46 C-197.66128906 45.04480469 -197.66128906 45.04480469 -198.3359375 44.0703125 C-205.29950777 35.01364596 -216.04306231 30.22295615 -227 28 C-242.49639207 26.06544398 -258.59643041 32.51616385 -268.4375 44.69921875 Z " fill="#000000" transform="translate(321,15)"/>
<path d="M0 0 C21.34387245 18.6758884 35.88488606 43.4540885 39.4375 71.875 C39.72915682 76.79518437 39.77141097 81.69706443 39.75 86.625 C39.74817719 87.28863556 39.74635437 87.95227112 39.74447632 88.63601685 C39.69913404 98.43334536 39.26692122 107.4474143 36.4375 116.875 C35.94443359 118.66744141 35.94443359 118.66744141 35.44140625 120.49609375 C26.51253429 150.18691019 5.98058457 173.32458281 -20.9375 188.125 C-28.21661782 191.96774499 -35.62379657 194.65720349 -43.5625 196.875 C-44.62597656 197.1946875 -45.68945312 197.514375 -46.78515625 197.84375 C-76.99628503 205.47603517 -108.52965173 198.81013591 -134.84375 183.21875 C-140.19058927 179.92587947 -144.94165471 176.12099796 -149.5625 171.875 C-150.05202148 171.42785645 -150.54154297 170.98071289 -151.04589844 170.52001953 C-173.15425066 150.10098655 -185.95879741 122.01166142 -187.55859375 91.921875 C-188.02154295 59.09456781 -177.25947875 30.59436518 -154.5625 6.875 C-153.93988281 6.18921875 -153.31726563 5.5034375 -152.67578125 4.796875 C-139.74274015 -8.9766782 -121.5591182 -18.09737333 -103.5625 -23.125 C-102.49902344 -23.4446875 -101.43554688 -23.764375 -100.33984375 -24.09375 C-64.94796306 -33.0348567 -27.63926691 -22.92036768 0 0 Z M-140.5625 14.875 C-141.25730469 15.48730469 -141.95210937 16.09960938 -142.66796875 16.73046875 C-157.44928486 30.56766886 -166.41938395 49.28297666 -170.5625 68.875 C-170.75457031 69.76960938 -170.94664062 70.66421875 -171.14453125 71.5859375 C-174.68236955 99.42574916 -167.97725943 126.14430392 -150.92578125 148.38671875 C-134.13328765 169.42638807 -110.33443539 181.45046087 -84.00390625 185.41015625 C-59.95480703 187.82896739 -33.77703076 180.76894188 -14.5625 166 C5.21577738 149.71053043 18.13724371 129.93892379 23.4375 104.875 C23.62828125 103.97652344 23.8190625 103.07804687 24.015625 102.15234375 C27.5288557 74.85974602 21.01788557 48.81503102 4.4375 26.875 C-11.58932705 6.80227341 -34.56756104 -7.42744587 -60.2578125 -10.87890625 C-90.5784959 -13.13682948 -117.64028885 -5.70746392 -140.5625 14.875 Z " fill="#000000" transform="translate(329.5625,169.125)"/>
<path d="M0 0 C1.95469198 2.88495888 2.24591738 5.24303759 2.22705078 8.67675781 C2.22680908 9.6102002 2.22656738 10.54364258 2.22631836 11.50537109 C2.21608643 12.47812988 2.20585449 13.45088867 2.1953125 14.453125 C2.19329834 15.35337402 2.19128418 16.25362305 2.18920898 17.18115234 C2.17876103 20.53748688 2.15083842 23.89374866 2.125 27.25 C2.08375 34.7575 2.0425 42.265 2 50 C19.82 50 37.64 50 56 50 C55.88134638 34.71224281 55.88134638 34.71224281 55.72973633 19.42480469 C55.72097386 17.50716654 55.71332936 15.58952282 55.70703125 13.671875 C55.6840094 12.18034912 55.6840094 12.18034912 55.66052246 10.65869141 C55.65997864 9.22807373 55.65997864 9.22807373 55.65942383 7.76855469 C55.64943108 6.52945343 55.64943108 6.52945343 55.63923645 5.26531982 C56.09348524 2.41298403 56.98579602 1.05199124 59 -1 C64.98557189 -1.74819649 64.98557189 -1.74819649 67.69452 0.24980164 C69.34690766 2.4650835 69.37922515 3.69265035 69.38768005 6.44067383 C69.39758469 7.34919098 69.40748932 8.25770813 69.41769409 9.1937561 C69.41319244 10.1881369 69.4086908 11.1825177 69.40405273 12.20703125 C69.41091599 13.25603607 69.41777924 14.30504089 69.42485046 15.38583374 C69.44318749 18.86152591 69.43927134 22.33676973 69.43359375 25.8125 C69.43815193 28.22241362 69.44345641 30.63232593 69.44947815 33.04223633 C69.45842263 38.09624508 69.45597049 43.15009593 69.44604492 48.20410156 C69.43454844 54.69116882 69.45477096 61.17769231 69.48396206 67.66468811 C69.50227808 72.64200318 69.50204085 77.61918681 69.49632454 82.5965271 C69.49617079 84.98880781 69.50225913 87.38109714 69.51461601 89.77334595 C69.5294386 93.11357084 69.51891292 96.45277649 69.50170898 99.79296875 C69.51137695 100.78734955 69.52104492 101.78173035 69.53100586 102.8062439 C69.51625465 104.16901962 69.51625465 104.16901962 69.50120544 105.55932617 C69.50089152 106.74397713 69.50089152 106.74397713 69.50057125 107.95256042 C69 110 69 110 67.19523716 111.78144836 C63.85052422 113.63806117 61.59518046 112.99866124 58 112 C56.04530802 109.11504112 55.75408262 106.75696241 55.77294922 103.32324219 C55.77319092 102.3897998 55.77343262 101.45635742 55.77368164 100.49462891 C55.78391357 99.52187012 55.79414551 98.54911133 55.8046875 97.546875 C55.80670166 96.64662598 55.80871582 95.74637695 55.81079102 94.81884766 C55.82123897 91.46251312 55.84916158 88.10625134 55.875 84.75 C55.91625 77.2425 55.9575 69.735 56 62 C38.18 62 20.36 62 2 62 C2.07909845 76.95856859 2.07909845 76.95856859 2.18017578 91.91699219 C2.18601754 93.79361748 2.19111385 95.67024531 2.1953125 97.546875 C2.20554443 98.51963379 2.21577637 99.49239258 2.22631836 100.49462891 C2.22656006 101.42807129 2.22680176 102.36151367 2.22705078 103.32324219 C2.231492 104.1315448 2.23593323 104.93984741 2.24050903 105.77264404 C1.96603265 108.31457186 1.43436874 109.8829939 0 112 C-5.86617637 113.62949344 -5.86617637 113.62949344 -9.19481659 111.78144836 C-11 110 -11 110 -11.50336456 107.95256042 C-11.50487267 107.16279312 -11.50638077 106.37302582 -11.50793457 105.55932617 C-11.51921387 104.65080902 -11.53049316 103.74229187 -11.54211426 102.8062439 C-11.53401733 101.8118631 -11.52592041 100.8174823 -11.51757812 99.79296875 C-11.5245874 98.74396393 -11.53159668 97.69495911 -11.53881836 96.61416626 C-11.5564581 93.13834346 -11.54475386 89.66333142 -11.53125 86.1875 C-11.53394318 83.7775863 -11.53782414 81.36767365 -11.54284668 78.95776367 C-11.54874986 73.90370349 -11.54015205 68.84992582 -11.52148438 63.79589844 C-11.49869481 57.30880752 -11.51181344 50.8223785 -11.53577423 44.33531189 C-11.55020982 39.35798125 -11.54563642 34.38080822 -11.53526306 29.4034729 C-11.5325896 27.01119916 -11.53588718 24.61891123 -11.54518127 22.22665405 C-11.55530964 18.88639269 -11.53989666 15.54721187 -11.51757812 12.20703125 C-11.52567505 11.21265045 -11.53377197 10.21826965 -11.54211426 9.1937561 C-11.53083496 8.28523895 -11.51955566 7.3767218 -11.50793457 6.44067383 C-11.50642647 5.65090652 -11.50491837 4.86113922 -11.50336456 4.04743958 C-11 2 -11 2 -9.19481659 0.21855164 C-5.85040726 -1.63824837 -3.59495286 -0.99859802 0 0 Z " fill="#000000" transform="translate(227,200)"/>
</svg>
